<svg width="512" height="512" viewBox="0 0 512 512" fill="none" xmlns="http://www.w3.org/2000/svg">
<mask id="mask0_92_343" style="mask-type:alpha" maskUnits="userSpaceOnUse" x="0" y="0" width="512" height="512">
<rect width="512" height="512" fill="#C4C4C4"/>
</mask>
<g mask="url(#mask0_92_343)">
<path d="M434.474 308.464C434.474 420.047 356.126 477.148 259.49 477.148C162.855 477.148 84.5068 420.047 84.5068 308.464C84.5068 196.881 162.855 73.0625 259.49 73.0625C356.14 73.0625 434.474 196.881 434.474 308.464Z" fill="#FEE479"/>
<path d="M252.247 249.695C244.781 249.189 223.886 223.705 229.609 219.313C235.332 214.922 279.268 216.738 283.605 222.99C287.927 229.257 259.714 250.201 252.247 249.695Z" fill="#EC9C00"/>
<path opacity="0.5" d="M434.474 307.959C434.474 419.542 356.125 476.643 259.49 476.643C162.855 476.643 348.703 470.719 392.565 368.082C480.064 163.36 284.036 75.7434 259.49 72.543C356.14 72.5579 434.474 196.376 434.474 307.959Z" fill="#FF7B02"/>
<path d="M242.054 58.4901C254.752 79.97 254.141 99.3361 240.683 101.763C227.225 104.189 227.418 79.315 214.721 57.8499C202.023 36.3699 194.705 24 194.705 24C194.705 24 229.356 37.0101 242.054 58.4901Z" fill="#FEE479"/>
<path d="M269.312 84.1975C269.312 106.794 257.837 125.103 243.693 125.103C229.55 125.103 243.693 101.495 243.693 78.913C243.693 56.3315 243.693 43.3066 243.693 43.3066C243.693 43.3066 269.312 61.616 269.312 84.1975Z" fill="#FEE479"/>
<path d="M448.365 254.518C448.365 254.518 448.365 503.911 256.182 503.331C64.0001 515.924 64 254.518 64 254.518L177.417 323.959L291.221 261.737L341.237 323.959L448.365 254.518Z" fill="white" stroke="#93DBFF" stroke-miterlimit="10"/>
<path d="M354.235 471.462C306.975 505.684 249.06 500.548 230.967 500.295C413.313 463.989 445.057 260.234 445.057 260.234C445.057 260.234 443.239 407.736 354.235 471.462Z" fill="#D0F1FF"/>
<path d="M310.342 203.001C313.413 203.001 315.901 194.81 315.901 184.707C315.901 174.603 313.413 166.412 310.342 166.412C307.272 166.412 304.783 174.603 304.783 184.707C304.783 194.81 307.272 203.001 310.342 203.001Z" fill="#3E2605"/>
<path d="M200.264 203.001C203.334 203.001 205.823 194.81 205.823 184.707C205.823 174.603 203.334 166.412 200.264 166.412C197.194 166.412 194.705 174.603 194.705 184.707C194.705 194.81 197.194 203.001 200.264 203.001Z" fill="#3E2605"/>
</g>
</svg>
